<svg id="Layer_1" data-name="Layer 1" xmlns="http://www.w3.org/2000/svg" viewBox="0 0 1049.53 1049.9"><defs><style>.cls-1{fill:#efda4f;}.cls-2{fill:#323330;}</style></defs><path class="cls-1" d="M1049.44,1049.81q-522.42,0-1044.85.09c-3.75,0-4.59-.84-4.59-4.59Q.15,522.67.09,0L7.58,0H1041.29c1.67,0,3.34.09,5,0,2.33-.15,3.39.76,3.24,3.15-.11,1.66,0,3.33,0,5V1041.82C1049.51,1044.48,1049.47,1047.15,1049.44,1049.81Z"/><path class="cls-2" d="M804.46,966.59c-43.08-.38-82.59-8.79-118.19-31.6-25.76-16.5-45.63-38.46-60.25-65.3-1.67-3.06-1.27-4.32,1.74-6q36.36-20.79,72.47-42c3.65-2.15,4.94-1.11,6.83,1.93,7.81,12.48,16.8,24.09,28.44,33.21,30.67,24,64.85,28.4,101.14,16C852,867.54,863.39,857,867,840.38c3.45-15.74.1-30.07-11.36-42-7.62-7.91-17-13.35-26.63-18.24-19.88-10.06-40.59-18.26-61-27.21-26-11.4-51-24.44-72.09-43.84-26.36-24.2-39.5-54.54-41.88-89.89-1.83-27.13,2.12-53.13,15.85-77,18-31.25,45.14-50.8,79.54-59.81,42.42-11.11,84.42-9.66,124.73,9,27.72,12.84,47,34.82,62.3,60.69,1.24,2.09.78,3.06-1.15,4.3Q899.64,579.24,864,602.26c-2.35,1.52-3.3.88-4.54-1.28-4.67-8.09-9.93-15.8-16.82-22.2-18.73-17.38-40.8-21.46-64.38-13.49-34.22,11.56-33.1,52.69-16.22,69.77,7.72,7.82,16.94,13.35,26.61,18.25,19,9.61,38.9,17.15,58.27,25.91,25,11.33,49.42,23.77,70.93,41.22,31.24,25.34,46.78,58.38,48.66,98.27,1.28,27.09-2.53,53.13-16.09,77.06-17.3,30.53-44.14,49-76.72,60.09C850.83,963.64,827.13,966.39,804.46,966.59Z"/><path class="cls-2" d="M570.18,660.62c0,57.26.66,114.53-.27,171.77-.51,31-9,60.12-28.42,85.16-19.61,25.32-46.22,39.17-77,45-38.68,7.35-76.85,5.68-113.45-10.42-33.56-14.76-57.24-39.78-73.57-72.23-1.29-2.56-1.2-3.9,1.46-5.49q37-22.18,73.82-44.66c2.64-1.62,3.7-1.4,5.2,1.33a187.8,187.8,0,0,0,18.14,27.42c19.8,24.51,52.67,23.11,71.5,14.66,14.54-6.53,20-19.65,22.73-34.26a135.06,135.06,0,0,0,1.9-24.85q0-163.29-.14-326.57c0-5.16,1.39-6.21,6.3-6.16q43.43.36,86.85,0c4.45,0,5.46,1.17,5.45,5.51q-.21,86.88-.1,173.77Z"/></svg>